<?xml version="1.0" standalone="no"?>
<!DOCTYPE svg PUBLIC "-//W3C//DTD SVG 20010904//EN"
 "http://www.w3.org/TR/2001/REC-SVG-20010904/DTD/svg10.dtd">
<svg version="1.0" xmlns="http://www.w3.org/2000/svg"
 width="2133.000000pt" height="2133.000000pt" viewBox="0 0 2133.000000 2133.000000"
 preserveAspectRatio="xMidYMid meet">
<metadata>
Created by potrace 1.11, written by Peter Selinger 2001-2013
</metadata>
<g transform="translate(0.000000,2133.000000) scale(0.100000,-0.100000)"
fill="#000000" stroke="none">
<path d="M11297 18334 c-1 -1 -87 -5 -192 -8 -104 -4 -206 -9 -225 -11 -31 -3
-133 -12 -225 -20 -37 -3 -166 -21 -215 -30 -8 -1 -40 -6 -70 -11 -30 -4 -57
-8 -60 -9 -12 -3 -96 -19 -110 -20 -31 -5 -215 -45 -275 -61 -11 -3 -31 -7
-45 -10 -83 -17 -479 -136 -512 -154 -10 -6 -23 -10 -28 -10 -14 0 -275 -102
-348 -136 -29 -13 -54 -24 -57 -24 -13 0 -329 -154 -435 -213 -330 -182 -602
-362 -890 -590 -666 -527 -1257 -1260 -1628 -2019 -87 -176 -73 -166 -182
-133 -30 10 -59 18 -65 20 -5 1 -28 7 -50 13 -22 6 -51 13 -65 16 -14 2 -56
11 -95 19 -94 21 -176 33 -295 44 -142 14 -509 7 -605 -11 -11 -2 -42 -7 -70
-10 -27 -4 -57 -9 -65 -11 -8 -2 -33 -6 -55 -10 -22 -3 -56 -10 -75 -15 -19
-5 -50 -12 -67 -15 -54 -9 -256 -72 -370 -116 -106 -40 -321 -142 -418 -197
-574 -329 -1039 -864 -1290 -1484 -50 -122 -110 -309 -131 -407 -2 -12 -11
-51 -19 -85 -7 -33 -16 -77 -19 -96 -3 -19 -7 -44 -10 -55 -2 -11 -7 -45 -11
-75 -3 -30 -8 -66 -10 -80 -20 -124 -20 -487 0 -610 2 -14 7 -50 10 -80 3 -30
8 -62 10 -70 2 -8 7 -31 10 -50 3 -19 15 -73 26 -120 11 -47 22 -94 24 -105 2
-11 18 -65 35 -120 25 -85 28 -101 15 -110 -8 -5 -57 -37 -110 -70 -183 -114
-330 -223 -554 -410 -33 -27 -178 -163 -215 -201 -123 -124 -227 -240 -309
-344 -38 -47 -74 -92 -80 -100 -7 -8 -38 -51 -70 -95 -31 -44 -60 -84 -65 -90
-14 -19 -152 -236 -152 -240 0 -2 -14 -28 -31 -57 -293 -494 -495 -1144 -546
-1761 -16 -187 -8 -690 12 -837 3 -19 7 -53 10 -75 4 -40 13 -99 21 -145 2
-14 8 -52 14 -85 33 -201 177 -712 211 -750 5 -5 9 -15 9 -22 0 -43 202 -462
312 -648 60 -101 174 -274 220 -335 23 -30 151 -196 176 -227 111 -139 380
-409 542 -544 355 -295 682 -496 1115 -684 188 -82 558 -199 761 -240 228 -46
427 -73 689 -91 84 -6 12362 -6 12460 0 228 14 389 29 457 42 15 3 39 7 55 9
34 4 149 23 183 30 68 13 95 19 215 47 72 16 168 41 215 55 47 13 92 26 100
28 35 8 273 90 365 127 504 200 979 481 1380 818 50 42 103 87 119 100 40 34
364 356 401 400 17 19 55 64 86 100 161 186 397 519 514 725 88 155 121 219
184 347 144 300 247 585 346 958 18 69 77 367 90 455 43 302 49 394 49 755 0
300 -4 400 -25 570 -6 47 -12 99 -14 115 -2 17 -6 44 -9 60 -3 17 -10 59 -15
95 -12 74 -13 80 -41 209 -56 267 -144 556 -245 806 -54 132 -58 143 -162 355
-176 360 -385 680 -652 1000 -105 126 -424 452 -527 540 -36 30 -76 64 -88 75
-25 21 -64 52 -157 125 -413 322 -926 599 -1434 773 -110 37 -309 97 -372 112
-10 2 -46 11 -80 19 -34 9 -75 18 -90 21 -15 3 -53 11 -83 18 l-55 12 -6 55
c-4 30 -9 84 -13 120 -4 36 -9 72 -11 80 -2 8 -7 40 -10 70 -4 30 -10 73 -15
95 -5 22 -11 56 -15 75 -5 34 -10 58 -21 110 -2 14 -7 36 -9 50 -7 43 -14 71
-49 215 -88 358 -187 646 -358 1040 -43 97 -216 432 -288 555 -318 544 -765
1087 -1220 1481 -52 45 -108 94 -125 108 -115 100 -339 266 -520 386 -528 348
-1049 587 -1670 767 -38 11 -77 21 -85 23 -8 2 -71 17 -140 34 -69 16 -136 32
-150 35 -14 2 -61 12 -105 21 -44 8 -96 18 -115 21 -19 3 -60 9 -90 14 -50 8
-76 12 -180 25 -91 12 -122 15 -305 30 -27 3 -122 7 -210 10 -88 4 -184 8
-213 9 -29 1 -54 1 -55 0z m346 -1348 c65 -4 126 -9 135 -11 9 -1 49 -6 87 -9
39 -4 77 -9 85 -11 8 -2 38 -6 65 -10 28 -3 73 -10 100 -15 28 -5 65 -12 83
-15 272 -45 636 -157 992 -306 99 -41 373 -181 452 -231 43 -26 80 -48 83 -48
2 0 58 -34 122 -76 387 -251 725 -553 1057 -944 26 -31 145 -186 166 -216 8
-12 35 -51 60 -86 55 -76 208 -319 210 -333 1 -5 7 -16 13 -23 31 -38 175
-331 252 -513 77 -183 189 -517 211 -629 2 -14 7 -31 9 -38 6 -17 53 -229 61
-277 4 -22 8 -49 10 -60 7 -32 12 -67 19 -110 3 -22 7 -53 10 -70 6 -42 13
-108 20 -190 3 -38 8 -88 10 -110 2 -22 7 -67 10 -100 25 -253 46 -380 79
-471 67 -183 164 -266 411 -349 97 -32 461 -122 695 -170 292 -61 705 -221
990 -384 177 -101 372 -236 528 -365 187 -154 482 -465 605 -636 9 -14 36 -52
60 -85 171 -238 345 -575 450 -871 35 -98 85 -257 91 -291 2 -10 9 -36 15 -58
6 -22 12 -51 15 -65 2 -14 5 -25 6 -25 1 0 4 -11 6 -25 33 -178 45 -255 50
-305 3 -33 7 -62 9 -65 7 -11 18 -233 19 -370 1 -344 -28 -577 -118 -951 -3
-9 -14 -49 -26 -90 -158 -536 -439 -1039 -805 -1437 -331 -361 -669 -615
-1116 -838 -336 -168 -757 -293 -1144 -340 -22 -3 -53 -7 -70 -9 -16 -3 -84
-8 -150 -12 -156 -10 -12376 -10 -12475 0 -173 17 -192 20 -380 58 -111 22
-146 31 -300 81 -587 189 -1104 560 -1479 1063 -149 200 -256 383 -348 595 -8
19 -19 44 -24 55 -49 113 -131 374 -153 485 -3 14 -8 36 -11 50 -5 24 -28 167
-39 240 -24 171 -25 558 -1 710 2 14 11 75 20 135 9 61 28 155 41 210 14 55
27 107 29 115 2 8 19 62 39 120 20 58 38 110 40 115 2 6 8 21 13 35 6 14 21
50 33 80 91 231 303 568 490 780 240 272 486 470 840 675 394 229 578 366 669
498 34 50 69 137 77 191 6 43 6 156 -1 189 -3 15 -7 37 -9 50 -20 109 -71 267
-167 512 -61 157 -112 346 -125 462 -41 365 59 756 275 1078 72 107 118 162
211 254 277 272 614 431 1011 477 60 6 397 7 434 1 17 -3 55 -9 85 -12 160
-19 312 -55 465 -110 357 -128 426 -145 570 -140 89 2 108 6 170 35 89 41 180
132 253 252 44 72 154 291 224 448 143 316 190 404 411 765 7 10 18 25 25 33
6 7 17 23 24 35 6 12 48 71 93 132 260 352 593 688 947 958 103 78 328 230
442 298 116 69 481 250 616 305 99 40 407 148 458 159 9 2 44 12 77 21 33 9
67 18 75 19 8 2 67 16 130 30 151 35 120 29 290 56 36 5 76 12 89 14 14 2 54
7 90 10 36 4 77 8 91 10 14 2 70 7 125 10 55 4 101 8 102 9 5 4 417 -2 516 -8z"/>
</g>
</svg>
